<?xml version="1.0" encoding="UTF-8"?>
<svg xmlns="http://www.w3.org/2000/svg" viewBox="220 160 1100 700" role="img" aria-labelledby="title desc">
  <title id="title">Romine Labs</title>
  <desc id="desc">Romine Labs luxury digital growth and innovation logo.</desc>

  <g fill="#0B1B35" fill-rule="evenodd">
    <path d="M486 193 H650 C724 193 770 226 770 291 C770 348 727 383 660 389 L606 389 C642 397 672 417 699 451 C741 503 785 539 838 554 C895 571 954 563 1006 540 C1028 530 1046 518 1059 506 C1046 536 1026 561 1000 577 C966 598 927 605 884 598 C819 588 766 560 721 518 C681 481 654 440 623 409 C607 393 587 388 558 388 H530 V557 C530 570 537 577 549 579 H486 C498 576 505 569 505 557 V214 C505 201 499 195 486 193 Z
M820 197 H909 V521 C909 533 916 540 930 541 H953 C936 547 918 549 899 546 C873 542 847 533 820 521 Z"/>
  </g>

  <g fill="#C69A52">
    <path d="M705 398 C721 402 736 412 748 425 C761 439 774 457 785 474 C793 487 802 498 812 507 C800 501 788 493 777 483 C762 469 750 452 739 436 C727 419 716 407 705 398 Z
M752 442 C764 449 776 461 786 474 C797 489 806 499 812 507 C799 501 787 493 777 483 C766 471 758 457 752 442 Z"/>
    <rect x="258" y="798" width="98" height="2" rx="1"/>
    <rect x="1180" y="798" width="98" height="2" rx="1"/>
  </g>

  <text x="770" y="744"
        text-anchor="middle"
        fill="#0B1B35"
        font-family="Georgia, 'Times New Roman', serif"
        font-size="86"
        font-weight="400"
        letter-spacing="12">ROMINE LABS</text>

  <text x="768" y="812"
        text-anchor="middle"
        fill="#0B1B35"
        font-family="Arial, Helvetica, sans-serif"
        font-size="20"
        font-weight="400"
        letter-spacing="7">GROWTH THROUGH INNOVATION</text>
</svg>
